{
	"asset":{
		"generator":"Khronos glTF Blender I/O v4.2.70",
		"version":"2.0"
	},
	"extensionsUsed":[
		"KHR_materials_transmission",
		"KHR_materials_specular"
	],
	"scene":0,
	"scenes":[
		{
			"name":"Scene",
			"nodes":[
				0
			]
		}
	],
	"nodes":[
		{
			"mesh":0,
			"name":"heart_inside_01",
			"rotation":[
				0.7071068286895752,
				0,
				0,
				0.7071068286895752
			],
			"scale":[
				0.009999999776482582,
				0.009999999776482582,
				0.009999999776482582
			]
		}
	],
	"materials":[
		{
			"doubleSided":true,
			"extensions":{
				"KHR_materials_transmission":{
					"transmissionFactor":1
				},
				"KHR_materials_specular":{
					"specularColorFactor":[
						2.0,
						2.0,
						2.0
					]
				}
			},
			"name":"heart_inside_mat_1",
			"pbrMetallicRoughness":{
				"metallicRoughnessTexture":{
					"index":0
				},
				"roughnessFactor":0.5527864098548889
			}
		},
		{
			"doubleSided":true,
			"name":"Material",
			"pbrMetallicRoughness":{
				"baseColorFactor":[
					0.2505926191806793,
					0.0006005132454447448,
					0.005107460077852011,
					1
				],
				"metallicFactor":0,
				"roughnessFactor":0.5
			}
		}
	],
	"meshes":[
		{
			"name":"Mesh.002",
			"primitives":[
				{
					"attributes":{
						"POSITION":0,
						"NORMAL":1,
						"TEXCOORD_0":2,
						"TEXCOORD_1":3,
						"COLOR_0":4,
						"COLOR_1":5,
						"COLOR_2":6
					},
					"indices":7,
					"material":0
				},
				{
					"attributes":{
						"POSITION":8,
						"NORMAL":9,
						"TEXCOORD_0":10,
						"TEXCOORD_1":11,
						"COLOR_0":12,
						"COLOR_1":13,
						"COLOR_2":14
					},
					"indices":15,
					"material":1
				}
			]
		}
	],
	"textures":[
		{
			"sampler":0,
			"source":0
		}
	],
	"images":[
		{
			"mimeType":"image/png",
			"name":"Image",
			"uri":"Image.png"
		}
	],
	"accessors":[
		{
			"bufferView":0,
			"componentType":5126,
			"count":17647,
			"max":[
				4.613870620727539,
				3.3985323905944824,
				-59.754154205322266
			],
			"min":[
				-3.430546998977661,
				-5.1848955154418945,
				-71.69866943359375
			],
			"type":"VEC3"
		},
		{
			"bufferView":1,
			"componentType":5126,
			"count":17647,
			"type":"VEC3"
		},
		{
			"bufferView":2,
			"componentType":5126,
			"count":17647,
			"type":"VEC2"
		},
		{
			"bufferView":3,
			"componentType":5126,
			"count":17647,
			"type":"VEC2"
		},
		{
			"bufferView":4,
			"componentType":5121,
			"count":17647,
			"normalized":true,
			"type":"VEC4"
		},
		{
			"bufferView":5,
			"componentType":5126,
			"count":17647,
			"type":"VEC3"
		},
		{
			"bufferView":6,
			"componentType":5126,
			"count":17647,
			"type":"VEC3"
		},
		{
			"bufferView":7,
			"componentType":5123,
			"count":73530,
			"type":"SCALAR"
		},
		{
			"bufferView":8,
			"componentType":5126,
			"count":1612,
			"max":[
				2.0248141288757324,
				0.6710518002510071,
				-63.591976165771484
			],
			"min":[
				0.7061997056007385,
				-0.9396768808364868,
				-67.75531005859375
			],
			"type":"VEC3"
		},
		{
			"bufferView":9,
			"componentType":5126,
			"count":1612,
			"type":"VEC3"
		},
		{
			"bufferView":10,
			"componentType":5126,
			"count":1612,
			"type":"VEC2"
		},
		{
			"bufferView":11,
			"componentType":5126,
			"count":1612,
			"type":"VEC2"
		},
		{
			"bufferView":12,
			"componentType":5121,
			"count":1612,
			"normalized":true,
			"type":"VEC4"
		},
		{
			"bufferView":13,
			"componentType":5126,
			"count":1612,
			"type":"VEC3"
		},
		{
			"bufferView":14,
			"componentType":5126,
			"count":1612,
			"type":"VEC3"
		},
		{
			"bufferView":15,
			"componentType":5123,
			"count":7797,
			"type":"SCALAR"
		}
	],
	"bufferViews":[
		{
			"buffer":0,
			"byteLength":211764,
			"byteOffset":0,
			"target":34962
		},
		{
			"buffer":0,
			"byteLength":211764,
			"byteOffset":211764,
			"target":34962
		},
		{
			"buffer":0,
			"byteLength":141176,
			"byteOffset":423528,
			"target":34962
		},
		{
			"buffer":0,
			"byteLength":141176,
			"byteOffset":564704,
			"target":34962
		},
		{
			"buffer":0,
			"byteLength":70588,
			"byteOffset":705880,
			"target":34962
		},
		{
			"buffer":0,
			"byteLength":211764,
			"byteOffset":776468,
			"target":34962
		},
		{
			"buffer":0,
			"byteLength":211764,
			"byteOffset":988232,
			"target":34962
		},
		{
			"buffer":0,
			"byteLength":147060,
			"byteOffset":1199996,
			"target":34963
		},
		{
			"buffer":0,
			"byteLength":19344,
			"byteOffset":1347056,
			"target":34962
		},
		{
			"buffer":0,
			"byteLength":19344,
			"byteOffset":1366400,
			"target":34962
		},
		{
			"buffer":0,
			"byteLength":12896,
			"byteOffset":1385744,
			"target":34962
		},
		{
			"buffer":0,
			"byteLength":12896,
			"byteOffset":1398640,
			"target":34962
		},
		{
			"buffer":0,
			"byteLength":6448,
			"byteOffset":1411536,
			"target":34962
		},
		{
			"buffer":0,
			"byteLength":19344,
			"byteOffset":1417984,
			"target":34962
		},
		{
			"buffer":0,
			"byteLength":19344,
			"byteOffset":1437328,
			"target":34962
		},
		{
			"buffer":0,
			"byteLength":15594,
			"byteOffset":1456672,
			"target":34963
		}
	],
	"samplers":[
		{
			"magFilter":9729,
			"minFilter":9987
		}
	],
	"buffers":[
		{
			"byteLength":1472268,
			"uri":"Heart_Insidetof.bin"
		}
	]
}
